<?xml version="1.0" encoding="UTF-8"?>
<svg height="16px" viewBox="0 0 16 16" width="16px" xmlns="http://www.w3.org/2000/svg">
    <path d="M 8 1 C 4.140625 1 1 4.140625 1 8 C 1 11.859375 4.140625 15 8 15 C 11.859375 15 15 11.859375 15 8 C 15 4.140625 11.859375 1 8 1 Z M 8 2.5 C 11.03125 2.5 13.5 4.96875 13.5 8 C 13.5 11.03125 11.03125 13.5 8 13.5 C 4.96875 13.5 2.5 11.03125 2.5 8 C 2.5 4.96875 4.96875 2.5 8 2.5 Z M 8 4 C 7.449219 4 7 4.449219 7 5 L 7 8 C 7 8.265625 7.105469 8.519531 7.292969 8.707031 L 9.292969 10.707031 C 9.488281 10.902344 9.742188 11 10 11 C 10.257812 11 10.511719 10.902344 10.707031 10.707031 C 11.097656 10.316406 11.097656 9.683594 10.707031 9.292969 L 9 7.585938 L 9 5 C 9 4.449219 8.550781 4 8 4 Z M 8 4 "/>
</svg>